<?xml version="1.0" encoding="UTF-8"?>
<svg version="1.1" xmlns="http://www.w3.org/2000/svg" width="100" height="100">
<path d="M0 0 C3.25 0.25 3.25 0.25 5.875 1.875 C6.65875 2.32875 7.4425 2.7825 8.25 3.25 C10.46734114 2.5998008 10.46734114 2.5998008 12.25 1.25 C15.07883747 -0.16441874 17.12376745 -0.06900332 20.25 0.25 C22.51400012 2.51400012 23.23258544 4.19775632 24.25 7.25 C24.94867188 7.29898437 25.64734375 7.34796875 26.3671875 7.3984375 C27.73230469 7.51058594 27.73230469 7.51058594 29.125 7.625 C30.02992187 7.69460937 30.93484375 7.76421875 31.8671875 7.8359375 C34.25 8.25 34.25 8.25 36.25 10.25 C36.39640501 11.89142541 36.47096589 13.5398141 36.5 15.1875 C36.6305598 17.85838582 36.6305598 17.85838582 37.25 20.25 C40.10252534 22.42829065 40.10252534 22.42829065 43.25 23.25 C44.25 24.25 44.25 24.25 44.5 27.5 C44.24026663 31.39600061 43.51032469 33.14205355 41.25 36.25 C41.745 36.765625 42.24 37.28125 42.75 37.8125 C44.85020266 41.22532932 44.88210717 43.31688873 44.25 47.25 C39.53205128 51.25 39.53205128 51.25 36.25 51.25 C36.27320312 51.85585938 36.29640625 52.46171875 36.3203125 53.0859375 C36.64826126 68.31212996 36.64826126 68.31212996 31.75 74.3125 C27.49879854 77.60718113 24.32368368 77.33006889 19.125 77.25 C7.48259977 77.14952621 -4.12366914 77.68875974 -15.75 78.25 C-15.75 79.24 -15.75 80.23 -15.75 81.25 C-13.275 80.755 -13.275 80.755 -10.75 80.25 C-10.42 81.24 -10.09 82.23 -9.75 83.25 C-10.41 83.91 -11.07 84.57 -11.75 85.25 C-11.09 86.57 -10.43 87.89 -9.75 89.25 C-11.73 90.24 -11.73 90.24 -13.75 91.25 C-14.08 90.92 -14.41 90.59 -14.75 90.25 C-15.41 91.57 -16.07 92.89 -16.75 94.25 C-17.74 93.92 -18.73 93.59 -19.75 93.25 C-20.08 92.26 -20.41 91.27 -20.75 90.25 C-22.07 90.25 -23.39 90.25 -24.75 90.25 C-25.245 89.26 -25.245 89.26 -25.75 88.25 C-25.09 87.26 -24.43 86.27 -23.75 85.25 C-24.41 84.26 -25.07 83.27 -25.75 82.25 C-25.42 81.59 -25.09 80.93 -24.75 80.25 C-23.1 80.58 -21.45 80.91 -19.75 81.25 C-19.79768403 79.37119128 -19.79768403 79.37119128 -20.75 77.25 C-22.72946592 75.88636792 -24.7319245 74.55581356 -26.75 73.25 C-29.89460066 69.93542093 -31.00032799 67.69607461 -31.75 63.25 C-32.61882813 63.28480469 -33.48765625 63.31960937 -34.3828125 63.35546875 C-46.20036455 63.63306225 -46.20036455 63.63306225 -50.75 60.25 C-55.76539265 54.69240273 -56.20879623 50.91285835 -56.16796875 43.53125 C-55.63819154 39.37225138 -54.36624428 37.42529417 -51.453125 34.51953125 C-48.49187707 32.31217901 -45.91794919 31.28969708 -42.3125 30.4375 C-38.22830242 29.07610081 -36.64042609 27.36861762 -33.75 24.25 C-29.20466814 20.61373451 -24.36380136 20.56611697 -18.75 20.25 C-18.77320313 19.55132813 -18.79640625 18.85265625 -18.8203125 18.1328125 C-18.83835938 17.22273438 -18.85640625 16.31265625 -18.875 15.375 C-18.89820313 14.47007813 -18.92140625 13.56515625 -18.9453125 12.6328125 C-18.75 10.25 -18.75 10.25 -16.75 8.25 C-15.10857459 8.10359499 -13.4601859 8.02903411 -11.8125 8 C-9.14161418 7.8694402 -9.14161418 7.8694402 -6.75 7.25 C-4.57170935 4.39747466 -4.57170935 4.39747466 -3.75 1.25 C-2.75 0.25 -2.75 0.25 0 0 Z " fill="#0D0D0A" transform="translate(55.75,-0.25)"/>
<path d="M0 0 C4.96312534 2.34109686 9.09778563 6.31413305 12 11 C12.375 14.4375 12.375 14.4375 12 17 C12.9075 17.0825 13.815 17.165 14.75 17.25 C18.58874809 18.13586494 19.85229792 18.69584296 22 22 C22.61353667 25.11928921 22.8707484 27.92804292 22 31 C19.1260316 34.18111007 17.52500767 34.94559506 13.23046875 35.390625 C11.88225415 35.36431837 10.53430482 35.31701804 9.1875 35.25 C8.49462891 35.23195312 7.80175781 35.21390625 7.08789062 35.1953125 C5.39132336 35.14851064 3.69547524 35.07677624 2 35 C1.67 35.99 1.34 36.98 1 38 C0.34 38 -0.32 38 -1 38 C-1 37.34 -1 36.68 -1 36 C-1.78125244 36.02618408 -2.56250488 36.05236816 -3.36743164 36.0793457 C-6.93224711 36.1837501 -10.49674021 36.24846635 -14.0625 36.3125 C-15.29162109 36.35439453 -16.52074219 36.39628906 -17.78710938 36.43945312 C-25.25373705 36.54008153 -29.54372117 36.28601198 -35 31 C-37.84860866 26.72708701 -37.72485019 23.01159863 -37 18 C-34.67494626 13.65989969 -34.67494626 13.65989969 -32 12 C-29.6875 11.4765625 -29.6875 11.4765625 -27.125 11.125 C-22.73728721 10.51124256 -20.95861302 9.40766394 -18.125 6 C-17.61195312 5.29875 -17.09890625 4.5975 -16.5703125 3.875 C-12.29458712 -1.23034374 -6.15174026 -0.70740536 0 0 Z " fill="#D1DBE8" transform="translate(65,38)"/>
<path d="M0 0 C16.38890984 -1.08589096 16.38890984 -1.08589096 23.3984375 4.39453125 C26.38664857 7.39003064 27 8.68798001 27 13 C25.5390625 14.37890625 25.5390625 14.37890625 23.625 15.5625 C20.85629199 17.30006367 19.89799165 18.15301253 18 21 C15.79296875 21.73828125 15.79296875 21.73828125 13.1875 22.3125 C7.88171316 23.77484529 5.95350833 25.38514324 3 30 C2.30857156 31.65654729 1.63713827 33.3218233 1 35 C-1.39774745 35.13572155 -3.78775245 35.23436868 -6.1875 35.3125 C-7.19780273 35.3753418 -7.19780273 35.3753418 -8.22851562 35.43945312 C-12.22216528 35.53685921 -13.79025201 35.17366231 -16.90625 32.59375 C-20.31486226 28.37114078 -21.52298319 25.64953769 -21.38671875 20.03125 C-20.56695498 15.72542011 -17.5813456 13.15965344 -14.125 10.625 C-11.06179913 9.72405857 -8.16941191 9.87809954 -5 10 C-4.566875 9.071875 -4.566875 9.071875 -4.125 8.125 C-3 6 -3 6 -1 4 C-0.3574765 1.93125966 -0.3574765 1.93125966 0 0 Z " fill="#D0DAE7" transform="translate(24,24)"/>
<path d="M0 0 C3.66570237 2.76128235 6.73350751 6.23654627 8.7890625 10.34765625 C9.45958809 18.72373004 9.37069108 25.1888616 4.7890625 32.34765625 C4.1290625 32.34765625 3.4690625 32.34765625 2.7890625 32.34765625 C2.2940625 31.13078125 1.7990625 29.91390625 1.2890625 28.66015625 C-1.45268066 23.09777085 -5.86392309 21.02116346 -11.2109375 18.34765625 C-12.98170742 18.32199292 -14.75256106 18.30193045 -16.5234375 18.28515625 C-21.65698697 17.88199791 -21.65698697 17.88199791 -23.9765625 15.64453125 C-25.24185589 13.58652393 -26.25989132 11.56676401 -27.2109375 9.34765625 C-27.87298659 8.01202411 -28.53829852 6.67798667 -29.2109375 5.34765625 C-27.96897628 4.19311463 -26.71700905 3.04933063 -25.4609375 1.91015625 C-24.76484375 1.27207031 -24.06875 0.63398438 -23.3515625 -0.0234375 C-17.00836541 -4.85028638 -6.61996621 -3.80035098 0 0 Z " fill="#F2C56D" transform="translate(76.2109375,17.65234375)"/>
<path d="M0 0 C0.66 0 1.32 0 2 0 C1.4936146 4.43087221 0.28947477 6.95723584 -3 10 C-5.25649442 10.62844424 -7.50010006 11.01062242 -9.80859375 11.40234375 C-13.15079951 12.31385441 -14.85309965 14.38346519 -17 17 C-17.33 17.33 -17.66 17.66 -18 18 C-18.38020705 23.60805396 -18.1290677 27.13256136 -15 32 C-11.39821412 34.40119059 -8.49133631 34.43771322 -4.3125 34.625 C-3.61060547 34.66367187 -2.90871094 34.70234375 -2.18554688 34.7421875 C-0.45745345 34.8362334 1.27123675 34.9191968 3 35 C3.33 33.35 3.66 31.7 4 30 C4.99 29.67 5.98 29.34 7 29 C6.94199219 29.88042969 6.88398438 30.76085937 6.82421875 31.66796875 C6.34151409 38.88654137 6.34151409 38.88654137 9.3125 45.1875 C13.7192461 48.15949156 15.86760086 49.26387608 21.19921875 49.4140625 C22.40771484 49.45273438 23.61621094 49.49140625 24.86132812 49.53125 C26.7552832 49.57765625 26.7552832 49.57765625 28.6875 49.625 C29.96173828 49.66367188 31.23597656 49.70234375 32.54882812 49.7421875 C35.69907292 49.83657686 38.84930991 49.9221583 42 50 C42 50.99 42 51.98 42 53 C34.08 53.33 26.16 53.66 18 54 C18 54.99 18 55.98 18 57 C20.475 56.505 20.475 56.505 23 56 C23.33 56.99 23.66 57.98 24 59 C23.34 59.66 22.68 60.32 22 61 C22.66 62.32 23.32 63.64 24 65 C22.02 65.99 22.02 65.99 20 67 C19.67 66.67 19.34 66.34 19 66 C18.34 67.32 17.68 68.64 17 70 C16.01 69.67 15.02 69.34 14 69 C13.67 68.01 13.34 67.02 13 66 C11.68 66 10.36 66 9 66 C8.505 65.01 8.505 65.01 8 64 C8.66 63.01 9.32 62.02 10 61 C9.34 60.01 8.68 59.02 8 58 C8.33 57.34 8.66 56.68 9 56 C10.65 56.33 12.3 56.66 14 57 C13.95231597 55.12119128 13.95231597 55.12119128 13 53 C11.02053408 51.63636792 9.0180755 50.30581356 7 49 C3.85539934 45.68542093 2.74967201 43.44607461 2 39 C1.13117187 39.03480469 0.26234375 39.06960937 -0.6328125 39.10546875 C-12.45036455 39.38306225 -12.45036455 39.38306225 -17 36 C-22.01539265 30.44240273 -22.45879623 26.66285835 -22.41796875 19.28125 C-21.88819154 15.12225138 -20.61624428 13.17529417 -17.703125 10.26953125 C-14.74187707 8.06217901 -12.16794919 7.03969708 -8.5625 6.1875 C-4.53052446 4.84350815 -2.83850443 3.08180481 0 0 Z " fill="#040405" transform="translate(22,24)"/>
<path d="M0 0 C2.9719385 1.12451727 5.33440687 2.22293791 8 4 C11.06453425 3.7642666 12.67167482 3.2510722 15.125 1.375 C15.74375 0.92125 16.3625 0.4675 17 0 C20 1 20 1 21.6875 3.9375 C23 7 23 7 23 9 C26.3 9 29.6 9 33 9 C33 12.63 33 16.26 33 20 C34.32 20.33 35.64 20.66 37 21 C38.6744239 21.6469365 40.34302621 22.30959426 42 23 C41.42655063 25.86724686 41.1385485 26.8614515 39 29 C38.53552403 33.92494167 38.53552403 33.92494167 40.5 38.3125 C40.995 38.869375 41.49 39.42625 42 40 C42 40.66 42 41.32 42 42 C40.28515625 43.078125 40.28515625 43.078125 38.0625 44.25 C34.46262659 46.34360615 34.46262659 46.34360615 33 50.3125 C33 51.199375 33 52.08625 33 53 C31.35 52.34 29.7 51.68 28 51 C28 47.83467782 28.4881352 46.72336163 29.9375 44 C32.96036196 38.279315 33.72379214 33.43794061 33 27 C32.16629783 24.74142503 31.1827064 22.76887586 29.97265625 20.69140625 C29 19 29 19 28 16 C26.28480253 14.97348627 26.28480253 14.97348627 24 14 C23.071875 13.29875 22.14375 12.5975 21.1875 11.875 C15.40654257 8.55908286 8.39776263 9.19681768 2 10 C-3.33278435 11.94790327 -6.80114156 15.33499811 -10 20 C-11.32 19.67 -12.64 19.34 -14 19 C-14 15.7 -14 12.4 -14 9 C-12.4325 9 -10.865 9 -9.25 9 C-5.29536935 8.68600159 -5.29536935 8.68600159 -2.4453125 6.15234375 C-1.46547447 4.12472272 -0.65706946 2.15263801 0 0 Z " fill="#EEDF83" transform="translate(55,3)"/>
<path d="M0 0 C1.9934119 1.21437736 3.68137138 2.49440345 5.4140625 4.0546875 C6.3215625 4.8178125 7.2290625 5.5809375 8.1640625 6.3671875 C13.09852289 12.2611263 14.8709479 17.15108741 14.75 24.85546875 C14.4140625 27.0546875 14.4140625 27.0546875 12.4140625 30.0546875 C11.4240625 30.3846875 10.4340625 30.7146875 9.4140625 31.0546875 C9.46046875 29.96929687 9.506875 28.88390625 9.5546875 27.765625 C9.59222737 26.32034019 9.62862514 24.87502539 9.6640625 23.4296875 C9.69757813 22.71683594 9.73109375 22.00398438 9.765625 21.26953125 C9.86153127 16.04263961 8.81967128 13.22609131 5.4140625 9.0546875 C-0.28786164 3.79137291 -5.27976954 2.64768209 -12.86328125 2.80078125 C-18.68001951 3.34323173 -22.73587727 5.58861764 -26.5859375 10.0546875 C-25.39739457 12.62986385 -24.0653673 14.82023192 -22.4609375 17.1796875 C-20.5859375 20.0546875 -20.5859375 20.0546875 -20.5859375 22.0546875 C-19.89628906 21.99667969 -19.20664062 21.93867187 -18.49609375 21.87890625 C-11.31397644 21.5340858 -6.27076586 22.49031286 -0.5859375 27.0546875 C1.10143059 29.00200148 2.18907245 30.76448871 3.4140625 33.0546875 C2.4240625 33.7146875 1.4340625 34.3746875 0.4140625 35.0546875 C0.02734375 34.57257812 -0.359375 34.09046875 -0.7578125 33.59375 C-1.27859375 32.96210937 -1.799375 32.33046875 -2.3359375 31.6796875 C-2.84640625 31.05320312 -3.356875 30.42671875 -3.8828125 29.78125 C-7.24144678 26.37639598 -10.25431606 25.74560657 -14.9609375 25.6796875 C-19.99574267 25.78681101 -22.75976265 26.59291026 -26.5859375 30.0546875 C-27.3284375 31.0859375 -28.0709375 32.1171875 -28.8359375 33.1796875 C-32.26347498 36.76302214 -34.52068084 36.87526926 -39.26953125 37.5546875 C-42.31642587 38.21236458 -43.76405142 39.5702974 -45.5859375 42.0546875 C-45.5859375 41.3946875 -45.5859375 40.7346875 -45.5859375 40.0546875 C-46.2459375 39.7246875 -46.9059375 39.3946875 -47.5859375 39.0546875 C-44.16220454 35.65235287 -41.30296946 32.92193128 -36.4609375 31.9921875 C-31.98966162 30.91042721 -30.60428434 29.40840621 -27.5859375 26.0546875 C-25.2734375 24.7421875 -25.2734375 24.7421875 -23.5859375 24.0546875 C-25.44160618 18.13974359 -27.54524933 15.92613619 -32.94140625 12.90234375 C-33.48410156 12.62261719 -34.02679688 12.34289063 -34.5859375 12.0546875 C-33.9259375 11.3946875 -33.2659375 10.7346875 -32.5859375 10.0546875 C-31.5959375 10.0546875 -30.6059375 10.0546875 -29.5859375 10.0546875 C-29.2765625 9.219375 -29.2765625 9.219375 -28.9609375 8.3671875 C-23.05517332 -1.56523408 -10.33241696 -3.77710711 0 0 Z " fill="#17130E" transform="translate(74.5859375,12.9453125)"/>
<path d="M0 0 C0 0.66 0 1.32 0 2 C-0.99 2 -1.98 2 -3 2 C-3.33 3.98 -3.66 5.96 -4 8 C-3.01 8.66 -2.02 9.32 -1 10 C-1 10.66 -1 11.32 -1 12 C-1.73605469 11.95359375 -2.47210938 11.9071875 -3.23046875 11.859375 C-9.47247842 11.54894404 -9.47247842 11.54894404 -15.125 13.875 C-17.85708262 16.9713603 -18.1770636 18.75845185 -18.25 22.8125 C-18.27578125 23.66457031 -18.3015625 24.51664063 -18.328125 25.39453125 C-17.91567753 28.66956053 -17.00769738 30.38159108 -15 33 C-12.41026413 33.77792947 -12.41026413 33.77792947 -9.45703125 33.70703125 C-8.38388672 33.73603516 -7.31074219 33.76503906 -6.20507812 33.79492188 C-5.08552734 33.80072266 -3.96597656 33.80652344 -2.8125 33.8125 C-1.11577148 33.85020508 -1.11577148 33.85020508 0.61523438 33.88867188 C3.4105053 33.94764384 6.20420675 33.98385033 9 34 C9 34.33 9 34.66 9 35 C4.81287049 35.14599475 0.62640105 35.23430718 -3.5625 35.3125 C-4.74392578 35.35439453 -5.92535156 35.39628906 -7.14257812 35.43945312 C-14.50310461 35.54254173 -18.603615 35.16932813 -24 30 C-26.84860866 25.72708701 -26.72485019 22.01159863 -26 17 C-23.67494626 12.65989969 -23.67494626 12.65989969 -21 11 C-18.6875 10.4765625 -18.6875 10.4765625 -16.125 10.125 C-11.70285337 9.51117965 -9.88428213 8.34674561 -7 4.9375 C-6.46375 4.22464844 -5.9275 3.51179688 -5.375 2.77734375 C-3.68358741 0.59100077 -2.77444567 0 0 0 Z " fill="#899EB6" transform="translate(54,39)"/>
<path d="M0 0 C2.475 0.495 2.475 0.495 5 1 C4.01 2.1446875 4.01 2.1446875 3 3.3125 C0.70149462 5.84277939 0.70149462 5.84277939 1 9 C1.99 9.66 2.98 10.32 4 11 C4 11.66 4 12.32 4 13 C3.26394531 12.94199219 2.52789063 12.88398437 1.76953125 12.82421875 C-4.65239242 12.41128493 -4.65239242 12.41128493 -10.125 15.4375 C-10.74375 16.283125 -11.3625 17.12875 -12 18 C-12.33 18.33 -12.66 18.66 -13 19 C-13.58665711 24.46042384 -13.41024818 28.4984724 -10 33 C-9.67 33.66 -9.34 34.32 -9 35 C-11.1875 35.3125 -11.1875 35.3125 -14 35 C-18.7499899 31.02326427 -20.74855096 28.22712003 -21.4375 22.125 C-21.32034238 17.29450106 -19.43783242 15.28156731 -16 12 C-12.53571026 9.45952086 -9.18972863 9.83885659 -5 10 C-4.566875 9.071875 -4.566875 9.071875 -4.125 8.125 C-3 6 -3 6 -1 4 C-0.3574765 1.93125966 -0.3574765 1.93125966 0 0 Z " fill="#8FA6C0" transform="translate(24,24)"/>
<path d="M0 0 C1.9375 0.375 1.9375 0.375 4 1 C4.33 1.66 4.66 2.32 5 3 C7.02463255 3.65213292 7.02463255 3.65213292 9 4 C8.7215625 5.11375 8.7215625 5.11375 8.4375 6.25 C8.00796892 8.94990963 8.14877026 10.44631077 9 13 C8.01 13.33 7.02 13.66 6 14 C5.34 13.67 4.68 13.34 4 13 C3.67 14.32 3.34 15.64 3 17 C1.68 16.67 0.36 16.34 -1 16 C-1 15.01 -1 14.02 -1 13 C-2.32 13.33 -3.64 13.66 -5 14 C-6.1004671 10.01080675 -6.1004671 6.98919325 -5 3 C-4.01 3 -3.02 3 -2 3 C-1.34 2.01 -0.68 1.02 0 0 Z " fill="#000000" transform="translate(84,77)"/>
<path d="M0 0 C1.9375 0.375 1.9375 0.375 4 1 C4.33 1.66 4.66 2.32 5 3 C6.32 3 7.64 3 9 3 C8.814375 3.9075 8.62875 4.815 8.4375 5.75 C8.04265379 8.68314324 8.05308428 10.2644657 9 13 C7.68 13 6.36 13 5 13 C4.67 13.99 4.34 14.98 4 16 C2.35 15.67 0.7 15.34 -1 15 C-1 14.34 -1 13.68 -1 13 C-1.99 13.33 -2.98 13.66 -4 14 C-4.66 13.67 -5.32 13.34 -6 13 C-5.125 9.125 -5.125 9.125 -4 8 C-4.66 7.67 -5.32 7.34 -6 7 C-5.67 5.68 -5.34 4.36 -5 3 C-4.01 3 -3.02 3 -2 3 C-1.34 2.01 -0.68 1.02 0 0 Z " fill="#000000" transform="translate(60,84)"/>
<path d="M0 0 C0.99 0 1.98 0 3 0 C3.66 0.99 4.32 1.98 5 3 C7.05925139 3.72382467 7.05925139 3.72382467 9 4 C9 4.99 9 5.98 9 7 C8.01 7.495 8.01 7.495 7 8 C7.66 8.66 8.32 9.32 9 10 C9 10.99 9 11.98 9 13 C8.01 13.33 7.02 13.66 6 14 C5.34 13.67 4.68 13.34 4 13 C3.67 13.99 3.34 14.98 3 16 C1.68 16 0.36 16 -1 16 C-1.33 15.01 -1.66 14.02 -2 13 C-3.32 13 -4.64 13 -6 13 C-5.814375 12.278125 -5.62875 11.55625 -5.4375 10.8125 C-4.98004693 7.87173027 -5.26483643 5.85896942 -6 3 C-4.68 3 -3.36 3 -2 3 C-1.34 2.01 -0.68 1.02 0 0 Z " fill="#000000" transform="translate(13,84)"/>
<path d="M0 0 C8.06268697 2.16315992 12.86836652 6.00774964 17.0546875 13.1328125 C18.76308737 16.50725522 19.15976171 19.27197413 19.1875 23 C19.20167969 23.86625 19.21585938 24.7325 19.23046875 25.625 C19 28 19 28 17 31 C16.01 31.33 15.02 31.66 14 32 C14.04640625 30.91460937 14.0928125 29.82921875 14.140625 28.7109375 C14.17816487 27.26565269 14.21456264 25.82033789 14.25 24.375 C14.28351563 23.66214844 14.31703125 22.94929688 14.3515625 22.21484375 C14.44746877 16.98795211 13.40560878 14.17140381 10 10 C4.4188679 4.84818575 -0.66692167 3.74573678 -8 3 C-8 2.67 -8 2.34 -8 2 C-6.865625 1.855625 -5.73125 1.71125 -4.5625 1.5625 C-1.19222799 1.38828522 -1.19222799 1.38828522 0 0 Z " fill="#2C2616" transform="translate(70,12)"/>
<path d="M0 0 C0.66 0.33 1.32 0.66 2 1 C-3.79737783 11.37425507 -3.79737783 11.37425507 -8.40625 12.68359375 C-10.16220986 12.97539296 -11.92149678 13.24789671 -13.68359375 13.5 C-16.73048837 14.15767708 -18.17811392 15.5156099 -20 18 C-20 17.34 -20 16.68 -20 16 C-20.66 15.67 -21.32 15.34 -22 15 C-18.57626704 11.59766537 -15.71703196 8.86724378 -10.875 7.9375 C-6.4288517 6.86181896 -4.91529057 5.42975361 -2 2 C-1.34 1.34 -0.68 0.68 0 0 Z " fill="#202326" transform="translate(49,37)"/>
<path d="M0 0 C7.87094732 -0.6620423 13.70249796 -0.05629313 20 5 C21.68736809 6.94731398 22.77500995 8.70980121 24 11 C23.01 11.66 22.02 12.32 21 13 C20.61328125 12.51789062 20.2265625 12.03578125 19.828125 11.5390625 C19.04695313 10.59160156 19.04695313 10.59160156 18.25 9.625 C17.73953125 8.99851562 17.2290625 8.37203125 16.703125 7.7265625 C13.76171018 4.7446695 11.05303051 3.82418113 6.9375 3.5625 C2.93502513 2.99071788 2.42931208 2.8379814 0 0 Z " fill="#201D16" transform="translate(54,35)"/>
<path d="M0 0 C1.65 0.33 3.3 0.66 5 1 C4.01 2.1446875 4.01 2.1446875 3 3.3125 C0.70149462 5.84277939 0.70149462 5.84277939 1 9 C1.99 9.66 2.98 10.32 4 11 C4 11.66 4 12.32 4 13 C0.04 13 -3.92 13 -8 13 C-8 12.34 -8 11.68 -8 11 C-7.01 11 -6.02 11 -5 11 C-4.896875 10.401875 -4.79375 9.80375 -4.6875 9.1875 C-3.89872032 6.67774646 -2.82982914 5.82982914 -1 4 C-0.28552357 1.89667109 -0.28552357 1.89667109 0 0 Z " fill="#9DB5CF" transform="translate(24,24)"/>
<path d="M0 0 C0 0.66 0 1.32 0 2 C-0.99 2 -1.98 2 -3 2 C-3.33 3.98 -3.66 5.96 -4 8 C-3.01 8.66 -2.02 9.32 -1 10 C-1 10.66 -1 11.32 -1 12 C-4.96 12 -8.92 12 -13 12 C-13 10 -13 10 -10.875 7.6875 C-2.65116279 0 -2.65116279 0 0 0 Z " fill="#9DB4CE" transform="translate(54,39)"/>
<path d="M0 0 C0.57234375 0.23589844 1.1446875 0.47179687 1.734375 0.71484375 C0.826875 1.43671875 -0.080625 2.15859375 -1.015625 2.90234375 C-3.8358244 5.24137169 -6.07469158 7.7655103 -8.265625 10.71484375 C-8.925625 9.39484375 -9.585625 8.07484375 -10.265625 6.71484375 C-9.03009224 5.51229851 -7.77660161 4.32818143 -6.515625 3.15234375 C-5.81953125 2.49105469 -5.1234375 1.82976563 -4.40625 1.1484375 C-2.265625 -0.28515625 -2.265625 -0.28515625 0 0 Z " fill="#E68A42" transform="translate(57.265625,16.28515625)"/>
<path d="M0 0 C-1.38081223 4.1424367 -3.59825558 5.32203099 -7 8 C-7 7.34 -7 6.68 -7 6 C-7.66 5.67 -8.32 5.34 -9 5 C-4.5 0 -4.5 0 0 0 Z " fill="#141517" transform="translate(36,47)"/>
<path d="M0 0 C1.65 0.33 3.3 0.66 5 1 C2.12505529 4.98069267 -0.82117329 7.43571997 -5 10 C-3.84826645 7.53199953 -2.95216435 5.95216435 -1 4 C-0.3574765 1.93125966 -0.3574765 1.93125966 0 0 Z " fill="#8DA3BC" transform="translate(24,24)"/>
<path d="M0 0 C3.63 0.33 7.26 0.66 11 1 C11 1.33 11 1.66 11 2 C1.58997722 4.11161731 1.58997722 4.11161731 -3 5 C-2.01 3.35 -1.02 1.7 0 0 Z " fill="#020203" transform="translate(52,35)"/>
<path d="M0 0 C1.21236328 0.01353516 1.21236328 0.01353516 2.44921875 0.02734375 C3.37154297 0.04474609 3.37154297 0.04474609 4.3125 0.0625 C3.9825 0.7225 3.6525 1.3825 3.3125 2.0625 C0.58984375 2.4765625 0.58984375 2.4765625 -2.75 2.6875 C-3.85472656 2.76226562 -4.95945313 2.83703125 -6.09765625 2.9140625 C-6.95230469 2.96304687 -7.80695312 3.01203125 -8.6875 3.0625 C-6.88341097 -0.54567807 -3.60175697 -0.05219938 0 0 Z " fill="#080503" transform="translate(65.6875,11.9375)"/>
<path d="M0 0 C0.53625 0.226875 1.0725 0.45375 1.625 0.6875 C0.635 1.0175 -0.355 1.3475 -1.375 1.6875 C-1.045 2.3475 -0.715 3.0075 -0.375 3.6875 C-2.685 4.3475 -4.995 5.0075 -7.375 5.6875 C-7.705 4.6975 -8.035 3.7075 -8.375 2.6875 C-2.95961538 -0.38942308 -2.95961538 -0.38942308 0 0 Z " fill="#271E10" transform="translate(59.375,12.3125)"/>
<path d="M0 0 C1 3 1 3 -0.4375 6.1875 C-1.2109375 7.5796875 -1.2109375 7.5796875 -2 9 C-2.99 8.67 -3.98 8.34 -5 8 C-3.8141763 4.62496331 -2.72426311 2.35277269 0 0 Z " fill="#19160C" transform="translate(86,42)"/>
<path d="M0 0 C0 0.66 0 1.32 0 2 C-0.99 2 -1.98 2 -3 2 C-3.226875 2.598125 -3.45375 3.19625 -3.6875 3.8125 C-5.33811133 6.56351888 -7.1972081 7.52484637 -10 9 C-8.5124715 4.98367305 -4.56813239 0 0 0 Z " fill="#8BA1B9" transform="translate(54,39)"/>
<path d="M0 0 C1.32 0.66 2.64 1.32 4 2 C3.67 2.66 3.34 3.32 3 4 C-0.63 3.67 -4.26 3.34 -8 3 C-8 2.67 -8 2.34 -8 2 C-6.865625 1.855625 -5.73125 1.71125 -4.5625 1.5625 C-1.19222799 1.38828522 -1.19222799 1.38828522 0 0 Z " fill="#42371F" transform="translate(70,12)"/>
<path d="M0 0 C1.98 0 3.96 0 6 0 C6 0.99 6 1.98 6 3 C4.02 3 2.04 3 0 3 C0 2.01 0 1.02 0 0 Z " fill="#2D2414" transform="translate(66,29)"/>
</svg>
